ply
format ascii 1.0
comment File exported by Rhinoceros Version 7.0
element vertex 16
property float x
property float y
property float z
property float nx
property float ny
property float nz
element face 7
property list uchar uint vertex_indices
end_header
-1091.47912597656 -685.401123046875 452.334838867188 -0.1762513 -0.2646266 -0.9481077
-782.307800292969 -689.555969238281 396.020172119141 -0.1783673 -0.1917331 -0.9651029
-473.136444091797 -693.710754394531 339.705505371094 -0.1795015 -0.1154978 -0.9769542
-163.965133666992 -697.865539550781 283.390838623047 -0.1795581 -0.03713893 -0.9830461
145.206192016602 -702.020324707031 227.076187133789 -0.1784955 0.04193954 -0.9830465
454.377502441406 -706.175109863281 170.761520385742 -0.1763334 0.1202675 -0.9769556
763.548828125 -710.329956054688 114.446853637695 -0.1731513 0.1964427 -0.9651057
1072.72021484375 -714.484741210938 58.1321868896484 -0.1690776 0.2692502 -0.9481124
-1072.72045898438 714.452819824219 58.1340942382813 0.1690822 -0.2692549 -0.9481102
-763.549072265625 710.303833007813 114.448760986328 0.1731548 -0.196444 -0.9651048
-454.377655029297 706.154846191406 170.763427734375 0.1763356 -0.1202663 -0.9769554
-145.206253051758 702.005859375 227.078094482422 0.1784963 -0.04193703 -0.9830465
163.965148925781 697.856872558594 283.392761230469 0.1795574 0.03714146 -0.9830461
473.136566162109 693.707885742188 339.707427978516 0.1794993 0.1154991 -0.9769544
782.307922363281 689.558898925781 396.022094726563 0.1783638 0.1917319 -0.9651037
1091.47937011719 685.409912109375 452.336761474609 0.1762466 0.2646221 -0.9481099
4 9 1 0 8
4 10 2 1 9
4 11 3 2 10
4 12 4 3 11
4 13 5 4 12
4 14 6 5 13
4 15 7 6 14
