ply
format ascii 1.0
comment File exported by Rhinoceros Version 7.0
element vertex 296
property float x
property float y
property float z
property float nx
property float ny
property float nz
element face 385
property list uchar uint vertex_indices
end_header
1114.36547851563 -699.428833007813 367.689849853516 -0.3936945 0.1552931 0.906029
811.839416503906 -697.623168945313 248.845413208008 -0.3293895 0.01569026 0.9440637
500.701507568359 -696.6884765625 154.907150268555 -0.2457151 -0.05362765 0.9678575
182.173690795898 -696.766540527344 90.4816741943359 -0.1476162 -0.04151897 0.9881729
-141.36279296875 -697.996337890625 60.3274421691895 -0.03541928 -0.004939558 0.9993603
-466.154693603516 -700.488098144531 68.616569519043 0.0877807 0.007547473 0.9961112
-787.254943847656 -704.292053222656 117.927665710449 0.2156057 -0.002060927 0.9764783
-1099.25573730469 -709.375244140625 208.379852294922 0.3399859 -0.02754476 0.9400271
1085.48803710938 711.407592773438 113.324920654297 0.4069214 0.1701387 0.8974786
778.338195800781 706.790283203125 213.815399169922 0.1795018 0.02880904 0.9833357
455.827575683594 704.773376464844 221.167816162109 -0.1360874 -0.05113484 0.9893763
141.696807861328 705.229797363281 143.341247558594 -0.2875517 -0.04437379 0.9567366
-172.555709838867 705.592163085938 66.1594467163086 -0.1448017 -0.007329192 0.9894335
-495.790313720703 703.725219726563 60.5885238647461 0.09971125 0.007792831 0.9949859
-812.414184570313 699.695495605469 126.446029663086 0.3029717 -0.0003528899 0.9529995
-1109.9794921875 693.862548828125 253.376174926758 0.4743184 -0.02459366 0.8800098
-900 500 155.743103027344 0.3434414 -0.006435353 0.9391521
-845.716857910156 500 136.897384643555 0.3122751 -0.002780194 0.9499876
-818.348999023438 500 128.154800415039 0.2962642 -0.00113637 0.9551054
-790.876586914063 500 119.887672424316 0.2800183 0.0003766668 0.9599946
-679.763671875 500 91.5607833862305 0.2135624 0.005090485 0.9769161
-452.520751953125 500 58.4004859924316 0.07333892 0.0074319 0.9972794
-222.891387939453 500 59.3738975524902 -0.08628106 -0.00224513 0.9962683
-194.463241577148 500 62.1483612060547 -0.1080565 -0.004561078 0.9941343
-180.283554077148 500 63.7692756652832 -0.1191035 -0.005825289 0.9928647
-166.122146606445 500 65.5487594604492 -0.1302571 -0.007162825 0.9914544
-109.537292480469 500 74.2165679931641 -0.1713261 -0.01311244 0.9851271
2.65615510940552 500 97.5917282104492 -0.2315881 -0.02666014 0.9724486
113.892974853516 500 126.304008483887 -0.2632762 -0.04025033 0.9638805
169.341339111328 500 141.654708862305 -0.2685924 -0.04628063 0.9621415
224.733444213867 500 157.069747924805 -0.2655106 -0.051317 0.9627412
335.931671142578 500 186.092910766602 -0.23283 -0.0567303 0.9708614
448.079772949219 500 209.193069458008 -0.1637248 -0.05288082 0.9850877
504.723663330078 499.999969482422 217.266006469727 -0.1178885 -0.0464095 0.9919418
561.736572265625 499.999938964844 222.70768737793 -0.07198827 -0.03686132 0.9967241
675.88623046875 499.999938964844 225.717102050781 0.0193558 -0.009030577 0.9997719
788.078552246094 500 218.450347900391 0.1100596 0.02917589 0.9934967
900 500 201.067459106445 0.1936408 0.07707366 0.9780403
-964.136169433594 696.980773925781 182.988800048828 0.3935996 -0.01084576 0.919218
-1104.61767578125 -7.75632476806641 230.878005981445 0.4081329 -0.02614283 0.9125481
-944.718200683594 -706.679321289063 158.112594604492 0.2787412 -0.01316233 0.9602761
-954.427185058594 -4.84926557540894 170.550689697266 0.3367065 -0.01202827 0.9415328
-888.946716308594 698.391967773438 152.881896972656 0.3495816 -0.005136315 0.9368919
-959.281677246094 346.065734863281 176.769744873047 0.3653277 -0.01144228 0.9308087
-655.876831054688 701.955810546875 85.2992324829102 0.2041926 0.006065957 0.9789119
-627.5048828125 -702.226318359375 88.0822982788086 0.1516081 0.005022332 0.9884279
-926.717224121094 697.699401855469 167.48957824707 0.3719085 -0.007882542 0.9282359
-961.708923339844 521.523254394531 179.879272460938 0.3795123 -0.01114523 0.9251196
-921.4384765625 346.761322021484 162.394424438477 0.3450751 -0.008435727 0.9385372
-886.117492675781 522.912231445313 150.864196777344 0.3369837 -0.005392354 0.941495
-924.077880859375 522.230346679688 164.942001342773 0.3585317 -0.00815992 0.9334819
-1037.85595703125 695.468688964844 216.556854248047 0.4351341 -0.01736726 0.9001982
-1107.29858398438 343.053131103516 242.127090454102 0.44154 -0.02538519 0.8968824
-1030.12390136719 -6.26044654846191 199.281127929688 0.3731222 -0.01872497 0.9275932
-1033.98999023438 344.604125976563 207.918991088867 0.4043713 -0.01805626 0.9144167
-850.840454101563 699.0576171875 139.191955566406 0.3266061 -0.002621519 0.9451569
-809.269287109375 524.197082519531 125.381240844727 0.2921468 -0.0005673404 0.9563733
-847.842956542969 523.568054199219 137.669418334961 0.3148582 -0.002856688 0.9491344
-734.671447753906 700.884948730469 103.875144958496 0.2543091 0.00340525 0.967117
-828.592590332031 523.885925292969 131.410537719727 0.3035762 -0.001680315 0.9528057
-949.572692871094 -355.764282226563 164.331649780273 0.3078168 -0.01260213 0.9513622
-866.313110351563 -705.446166992188 136.740371704102 0.2474085 -0.007151479 0.9688849
-773.6845703125 700.304809570313 114.668342590332 0.2788227 0.001658541 0.9603412
-731.290466308594 525.372009277344 103.604080200195 0.2455099 0.003232239 0.9693887
-770.412231445313 524.798583984375 114.021354675293 0.2689842 0.001464769 0.9631435
-789.875061035156 524.501281738281 119.584251403809 0.2806045 0.0004812131 0.9598234
-707.623596191406 -703.218566894531 101.706642150879 0.1835865 0.002018358 0.9830015
-333.761444091797 704.962524414063 53.4805755615234 -0.01469549 0.003946531 0.9998842
-303.892120361328 -699.079711914063 59.4613075256348 0.02510692 0.004792381 0.9996733
-252.864730834961 705.358520507813 57.1942596435547 -0.07772015 -0.0006311449 0.996975
-14.4119176864624 705.597351074219 98.9022903442383 -0.2491159 -0.02562578 0.9681346
20.8254890441895 -697.229675292969 70.8376617431641 -0.09320094 -0.02225481 0.9953986
-212.612884521484 705.496337890625 61.0013694763184 -0.1107562 -0.003698832 0.9938408
-249.084274291992 529.87646484375 57.3778800964355 -0.06866629 -0.0004354001 0.9976396
-168.656585693359 530.143615722656 65.4304504394531 -0.1311355 -0.007033398 0.9913395
-208.784454345703 530.029663085938 60.774974822998 -0.09946088 -0.003453927 0.9950355
-93.1142196655273 705.661315917969 80.4107894897461 -0.2054176 -0.01597958 0.9785439
-228.915557861328 529.957885742188 58.9211692810059 -0.08395327 -0.001876618 0.9964679
-293.263488769531 705.18017578125 54.7000312805176 -0.04570197 0.001906243 0.9989533
-330.027770996094 529.457214355469 54.2281684875488 -0.009709867 0.004052851 0.9999446
-289.513061523438 529.685302734375 55.2064971923828 -0.03875253 0.002055604 0.9992467
-414.863952636719 704.41455078125 54.7135963439941 0.04436471 0.006668543 0.9989932
-222.621124267578 -698.497863769531 58.6632041931152 -0.005422527 0.000929529 0.9999849
-188.696334838867 530.091613769531 62.9433708190918 -0.1151887 -0.005171487 0.9933302
-132.728164672852 705.645874023438 72.6728363037109 -0.1772332 -0.0114724 0.984102
-128.732482910156 530.218200683594 71.3473587036133 -0.1613987 -0.01113233 0.9868265
-198.734680175781 530.061828613281 61.8195953369141 -0.1072973 -0.004294917 0.9942177
-192.556976318359 705.549560546875 63.4091567993164 -0.1276539 -0.00544171 0.9918038
-210.698669433594 617.763000488281 60.8881721496582 -0.1051095 -0.003576421 0.9944542
-170.606140136719 617.867919921875 65.7949523925781 -0.1379713 -0.007181453 0.9904102
-190.626663208008 617.820556640625 63.1762657165527 -0.121423 -0.005306688 0.9925867
-178.670074462891 530.118835449219 64.1468200683594 -0.1231348 -0.006084146 0.9923713
-148.669189453125 530.185668945313 68.2365875244141 -0.1467303 -0.009028277 0.9891353
-60.1931343078613 -697.574157714844 64.4068603515625 -0.06473185 -0.01289881 0.9978193
-158.656356811523 530.165893554688 66.794303894043 -0.1390483 -0.008016279 0.9902532
-152.613433837891 705.624084472656 69.2527923583984 -0.1615467 -0.009347976 0.9868208
-130.730331420898 617.932006835938 72.0101013183594 -0.1693215 -0.01130273 0.985496
-150.641311645508 617.904907226563 68.7446899414063 -0.1541425 -0.009188377 0.9880059
63.7816200256348 705.440246582031 120.317825317383 -0.2763193 -0.03537614 0.9604146
297.694458007813 704.823608398438 188.444305419922 -0.2538464 -0.05612132 0.965615
342.239837646484 -696.591979980469 118.704696655273 -0.1984761 -0.05500556 0.978561
102.759605407715 705.339233398438 131.710815429688 -0.2839057 -0.04002211 0.9580166
68.5131759643555 530.140075683594 115.22208404541 -0.2572164 -0.03501473 0.9657193
146.756423950195 529.980285644531 136.733795166016 -0.2703669 -0.0440666 0.9617484
219.574142456055 705.0078125 166.593551635742 -0.2808679 -0.0516791 0.9583541
180.623291015625 705.117309570313 155.036758422852 -0.2867262 -0.04830855 0.9567938
185.835952758789 529.890563964844 147.751663208008 -0.2712213 -0.04803539 0.9613177
376.3486328125 704.728332519531 207.200164794922 -0.2058073 -0.05640432 0.9769657
617.239562988281 705.415283203125 230.280944824219 0.02316865 -0.02199986 0.9994895
657.290954589844 -697.038208007813 198.482986450195 -0.2894914 -0.02995892 0.9567116
415.966827392578 704.730102539063 214.88835144043 -0.1736739 -0.05455093 0.9832912
382.016235351563 529.561401367188 198.280975341797 -0.2079129 -0.05644961 0.9765171
461.436828613281 529.590637207031 212.885238647461 -0.1499742 -0.05148361 0.9873486
421.627532958984 529.558898925781 206.170043945313 -0.1813296 -0.05472901 0.9818983
536.274230957031 705.000610351563 228.943420410156 -0.05600986 -0.03953015 0.9976473
495.948760986328 704.863342285156 225.863098144531 -0.09592409 -0.04609952 0.9943206
541.645263671875 529.771423339844 222.301788330078 -0.08282446 -0.04028013 0.9957498
576.729370117188 705.184753417969 230.41423034668 -0.01632058 -0.03147804 0.9993712
622.245971679688 530.108581542969 226.306198120117 -0.01609813 -0.02312382 0.999603
581.929382324219 529.920654296875 224.978698730469 -0.04943106 -0.03242568 0.998251
698.126525878906 706.01318359375 225.223785400391 0.101634 0.0009769682 0.9948214
934.972106933594 708.840515136719 173.091995239258 0.3136341 0.09535661 0.9447438
964.219116210938 -698.425659179688 305.423400878906 -0.3645036 0.07966852 0.9277877
1099.9267578125 5.98938512802124 240.507385253906 0.00660331 0.17756 0.9840878
949.595581054688 5.20742559432983 239.257690429688 -0.02729785 0.09302411 0.9952896
857.355590820313 707.739318847656 196.220886230469 0.2518413 0.06062884 0.9658675
942.283813476563 357.023956298828 206.174850463867 0.150567 0.0956554 0.9839612
900 -500 269.608947753906 -0.2708564 0.05602559 0.960988
681.794067382813 -500 210.688751220703 -0.2501819 -0.02168727 0.9679559
570.991943359375 -500 182.724700927734 -0.2388167 -0.044434 0.9700475
515.271728515625 -500 169.184753417969 -0.2328606 -0.051459 0.9711477
459.666625976563 -500 156.037567138672 -0.2264565 -0.05549152 0.9724393
235.273452758789 -500 108.397987365723 -0.1834499 -0.04798674 0.9818571
8.65931129455566 -500.000030517578 73.9562606811523 -0.1126002 -0.02188766 0.9933993
-105.481185913086 -500 63.5487480163574 -0.06795541 -0.009066333 0.9976472
-162.694686889648 -500 60.3514556884766 -0.04343843 -0.003846637 0.9990487
-219.939743041992 -500 58.5746040344238 -0.01862047 0.0002800914 0.9998266
-449.259552001953 -500 65.6697616577148 0.08035596 0.007531272 0.9967378
-676.734008789063 -500 95.420768737793 0.1787473 0.003643971 0.9838883
-900 -500 147.587814331055 0.2755577 -0.009078001 0.9612417
734.829284667969 -697.302429199219 222.852264404297 -0.3099751 -0.009713806 0.950695
579.242370605469 -696.832824707031 175.810363769531 -0.2680476 -0.04469224 0.9623685
540.032348632813 -696.752868652344 165.133026123047 -0.2569895 -0.04990034 0.965125
421.689544677734 -696.607421875 135.846664428711 -0.2225296 -0.05675733 0.9732724
461.252532958984 -696.639892578125 145.141860961914 -0.2342287 -0.05587487 0.9705746
-145.261917114258 -522.547729492188 61.0564422607422 -0.04904426 -0.005239956 0.9987829
-100.762771606445 -697.775390625 62.0689811706543 -0.0501808 -0.008688873 0.9987023
-64.3082656860352 -522.169738769531 66.4073486328125 -0.08230873 -0.01329634 0.9965182
-181.985412597656 -698.237060546875 59.1902198791504 -0.02048699 -0.001736961 0.9997886
-185.813842773438 -522.770385742188 59.4166145324707 -0.03172865 -0.001981859 0.9994946
684.227355957031 3.6757800579071 220.375961303711 -0.1184992 -0.01407892 0.9928544
459.240600585938 3.43853378295898 184.222946166992 -0.197895 -0.05398849 0.9787353
231.242691040039 3.58584070205688 132.769378662109 -0.2268971 -0.04986471 0.9726413
5.00791072845459 3.58194875717163 85.169563293457 -0.172191 -0.02423155 0.9847655
-224.186065673828 2.89600896835327 58.5459518432617 -0.04947741 -0.000748898 0.9987749
-455.400695800781 1.2523912191391 62.3729286193848 0.08016722 0.007544936 0.9967529
-684.332641601563 -1.27986252307892 94.9026031494141 0.1999926 0.004166603 0.9797885
-900 500 155.743103027344 0.3434414 -0.006435353 0.9391521
-900 250.024154663086 153.948104858398 0.3270329 -0.007094913 0.9449863
-900 0.031759686768055 151.989685058594 0.3102342 -0.007755947 0.9506285
-900 -249.976516723633 149.869155883789 0.2930677 -0.008417354 0.9560546
-900 -500 147.587814331055 0.2755577 -0.009078001 0.9612417
-676.734008789063 -500 95.420768737793 0.1787473 0.003643971 0.9838883
-449.259552001953 -500 65.6697616577148 0.08035596 0.007531272 0.9967378
-219.939743041992 -500 58.5746040344238 -0.01862047 0.0002800914 0.9998266
-162.694686889648 -500 60.3514556884766 -0.04343843 -0.003846637 0.9990487
-105.481185913086 -500 63.5487480163574 -0.06795541 -0.009066333 0.9976472
8.65931129455566 -500.000030517578 73.9562606811523 -0.1126002 -0.02188766 0.9933993
235.273452758789 -500 108.397987365723 -0.1834499 -0.04798674 0.9818571
459.666625976563 -500 156.037567138672 -0.2264565 -0.05549152 0.9724393
515.271728515625 -500 169.184753417969 -0.2328606 -0.051459 0.9711477
570.991943359375 -500 182.724700927734 -0.2388167 -0.044434 0.9700475
681.794067382813 -500 210.688751220703 -0.2501819 -0.02168727 0.9679559
900 -500 269.608947753906 -0.2708564 0.05602559 0.960988
-339.783355712891 2.19136810302734 56.7081527709961 0.01704194 0.005158433 0.9998415
-450.065460205078 -251.004409790039 63.8532867431641 0.07929277 0.007526853 0.996823
-218.733108520508 -249.291854858398 58.6269874572754 -0.03543051 -0.0004449756 0.9993721
-334.424713134766 -250.043334960938 57.9181594848633 0.02281501 0.005280524 0.9997258
-276.553375244141 -249.640884399414 57.4297142028809 -0.006073215 0.002900028 0.9999774
-331.745422363281 -376.160675048828 58.5231628417969 0.02569947 0.005341466 0.9996554
-216.006622314453 -375.385772705078 58.6675033569336 -0.0284154 -0.0002932187 0.9995962
-273.859832763672 -375.748260498047 57.8117942810059 -0.001228423 0.003003561 0.9999948
-109.115661621094 3.35368537902832 68.2544555664063 -0.1179025 -0.01089655 0.9929654
11.3482494354248 -248.42626953125 80.0771789550781 -0.1440246 -0.02361438 0.9892923
-103.343017578125 -248.756881713867 66.1732864379883 -0.09451053 -0.01038161 0.9954697
-160.952117919922 -248.996871948242 61.5396537780762 -0.06531824 -0.004861343 0.9978526
-100.456695556641 -374.812164306641 65.1327056884766 -0.08282436 -0.01012264 0.9965128
-158.164031982422 -375.073516845703 61.1079368591309 -0.05591439 -0.004655344 0.9984247
345.131072998047 3.49239420890808 159.357971191406 -0.2235338 -0.05638287 0.9730641
238.886978149414 -248.219772338867 121.64323425293 -0.2066248 -0.04944937 0.9771699
467.345916748047 -248.316864013672 171.974594116211 -0.2132082 -0.05432387 0.9754953
353.199890136719 -248.255920410156 146.62434387207 -0.2173087 -0.05625499 0.9744805
410.281005859375 -248.286651611328 159.364517211914 -0.2171047 -0.05660218 0.9745059
357.234313964844 -374.130065917969 140.257522583008 -0.2141968 -0.05619028 0.975173
471.398590087891 -374.194549560547 165.85041809082 -0.2208285 -0.05448622 0.9737895
414.354309082031 -374.15771484375 152.961029052734 -0.2188907 -0.05663954 0.9741041
571.77587890625 3.49414157867432 204.637680053711 -0.1583555 -0.03996743 0.9865729
691.068969726563 -248.353530883789 217.618682861328 -0.1859551 -0.01579605 0.9824312
579.412841796875 -248.35368347168 195.660797119141 -0.1997239 -0.0409518 0.9789961
523.394897460938 -248.33984375 184.026947021484 -0.2065595 -0.04913693 0.9771994
583.231323242188 -374.277587890625 191.172348022461 -0.2202125 -0.04141541 0.9745723
527.360107421875 -374.234985351563 178.534652709961 -0.2206214 -0.04944485 0.9741054
900 -250.124542236328 254.402725219727 -0.1613608 0.06245631 0.9849172
900 -0.165057748556137 237.912521362305 -0.04439414 0.06830505 0.9966763
900 249.876953125 220.135147094727 0.07562873 0.07325306 0.9944417
900 500 201.067459106445 0.1936408 0.07707366 0.9780403
788.078552246094 500 218.450347900391 0.1100596 0.02917589 0.9934967
675.88623046875 499.999938964844 225.717102050781 0.0193558 -0.009030577 0.9997719
561.736572265625 499.999938964844 222.70768737793 -0.07198827 -0.03686132 0.9967241
504.723663330078 499.999969482422 217.266006469727 -0.1178885 -0.0464095 0.9919418
448.079772949219 500 209.193069458008 -0.1637248 -0.05288082 0.9850877
335.931671142578 500 186.092910766602 -0.23283 -0.0567303 0.9708614
224.733444213867 500 157.069747924805 -0.2655106 -0.051317 0.9627412
169.341339111328 500 141.654708862305 -0.2685924 -0.04628063 0.9621415
113.892974853516 500 126.304008483887 -0.2632762 -0.04025033 0.9638805
2.65615510940552 500 97.5917282104492 -0.2315881 -0.02666014 0.9724486
-109.537292480469 500 74.2165679931641 -0.1713261 -0.01311244 0.9851271
-166.122146606445 500 65.5487594604492 -0.1302571 -0.007162825 0.9914544
-180.283554077148 500 63.7692756652832 -0.1191035 -0.005825289 0.9928647
-194.463241577148 500 62.1483612060547 -0.1080565 -0.004561078 0.9941343
-222.891387939453 500 59.3738975524902 -0.08628106 -0.00224513 0.9962683
-452.520751953125 500 58.4004859924316 0.07333892 0.0074319 0.9972794
-679.763671875 500 91.5607833862305 0.2135624 0.005090485 0.9769161
-790.876586914063 500 119.887672424316 0.2800183 0.0003766668 0.9599946
-818.348999023438 500 128.154800415039 0.2962642 -0.00113637 0.9551054
-845.716857910156 500 136.897384643555 0.3122751 -0.002780194 0.9499876
677.3857421875 255.705093383789 223.133239746094 -0.05042822 -0.01229449 0.998652
798.300598144531 3.98944902420044 231.59391784668 -0.07692718 0.02423695 0.9967421
792.3037109375 256.293304443359 224.996032714844 0.01837319 0.02657363 0.999478
451.135314941406 255.193923950195 196.471298217773 -0.1824936 -0.05363896 0.9817428
564.138916015625 255.34196472168 213.614562988281 -0.1166465 -0.03891074 0.992411
560.320434570313 381.265869140625 218.103012084961 -0.09573335 -0.03835702 0.9946677
620.804748535156 255.496994018555 219.326217651367 -0.0835982 -0.02705123 0.9961323
673.964965820313 381.719757080078 224.511871337891 -0.01645976 -0.01138493 0.9997997
617.173828125 381.460815429688 222.44221496582 -0.05613605 -0.02630773 0.9980765
447.082641601563 381.071624755859 202.595474243164 -0.1747633 -0.05345894 0.9831581
507.534240722656 255.24072265625 205.996078491211 -0.1497124 -0.04779907 0.9875735
503.569061279297 381.135864257813 211.488357543945 -0.1353946 -0.04743894 0.9896554
223.598403930664 255.391448974609 143.895523071289 -0.247074 -0.05025856 0.9676924
337.062225341797 255.240707397461 172.091598510742 -0.2297598 -0.05650865 0.9716055
219.776260375977 381.294250488281 149.458587646484 -0.2571186 -0.05044728 0.9650623
280.288970947266 255.30973815918 158.250595092773 -0.242108 -0.05429049 0.9687292
333.02783203125 381.114868164063 178.458404541016 -0.232873 -0.05657074 0.9708604
276.341949462891 381.195007324219 164.319122314453 -0.2491533 -0.05442483 0.9669336
-1.33242738246918 255.59016418457 90.2619400024414 -0.2002562 -0.02482981 0.9794289
118.362464904785 3.63890528678894 107.349952697754 -0.208682 -0.03811468 0.9772406
111.347679138184 255.538787841797 115.676689147949 -0.2356835 -0.03866232 0.9710605
107.840286254883 381.488708496094 119.840057373047 -0.2491064 -0.03892482 0.9676936
167.499725341797 255.471755981445 129.61262512207 -0.244755 -0.04491941 0.9685439
163.827285766602 381.396606445313 134.524765014648 -0.2568885 -0.04515008 0.9653858
-229.639022827148 255.083877563477 58.464916229248 -0.06353964 -0.001053216 0.9979787
-114.888305664063 255.464248657227 70.3356170654297 -0.141288 -0.01140673 0.9899028
-117.774627685547 381.51953125 71.3762054443359 -0.1529661 -0.01165976 0.9881626
-57.9809494018555 255.554397583008 79.4449920654297 -0.1737471 -0.01790128 0.9846276
-4.50259637832642 381.594268798828 92.8081359863281 -0.2142293 -0.02512138 0.9764603
-60.9977798461914 381.585083007813 81.2039794921875 -0.1869419 -0.01818328 0.9822026
-232.365493774414 381.177795410156 58.4244003295898 -0.07057389 -0.001205466 0.9975058
-172.104415893555 255.309661865234 63.2665176391602 -0.1029937 -0.005683591 0.9946658
-174.892501831055 381.386291503906 63.6982345581055 -0.1124149 -0.005888433 0.9936439
-460.735931396484 253.509201049805 60.8925743103027 0.0810421 0.007563024 0.996682
-345.141967773438 254.426071166992 55.4981460571289 0.01126384 0.005036075 0.9999239
-176.286529541016 444.424621582031 63.9140930175781 -0.1171241 -0.005990708 0.9930992
-146.287261962891 381.462066650391 67.2452621459961 -0.133465 -0.008658189 0.9910157
-119.217788696289 444.547180175781 71.8964920043945 -0.1587993 -0.01178571 0.9872406
-147.703567504883 444.495300292969 67.605224609375 -0.1387804 -0.008773444 0.9902843
-176.983551025391 475.943756103516 64.0220184326172 -0.1194782 -0.006041806 0.9928184
-161.982452392578 444.46240234375 65.6817016601563 -0.1281109 -0.007349895 0.9917326
-148.411712646484 476.011901855469 67.7852096557617 -0.1414371 -0.008830988 0.9899079
-162.684722900391 475.980316162109 65.8245697021484 -0.1306206 -0.00740433 0.9914048
-233.728744506836 444.224761962891 58.4041404724121 -0.07409134 -0.001281605 0.9972506
-203.589614868164 381.291442871094 60.7604103088379 -0.09129938 -0.003404108 0.9958177
-204.966156005859 444.334350585938 60.8497123718262 -0.09540019 -0.003493104 0.9954329
-347.8212890625 380.543426513672 54.8931427001953 0.008373076 0.0049748 0.9999526
-287.327514648438 254.788589477539 55.9013862609863 -0.02548191 0.002484552 0.9996722
-290.021057128906 380.895965576172 55.5193023681641 -0.03033976 0.002380383 0.9995368
-205.654418945313 475.855773925781 60.8943634033203 -0.09745043 -0.003537589 0.9952341
-190.615051269531 444.381927490234 62.3038673400879 -0.1062104 -0.004705382 0.9943326
-191.307418823242 475.902252197266 62.3790740966797 -0.108411 -0.004753153 0.9940948
-689.313842773438 250.966796875 94.8466644287109 0.2112176 0.004387744 0.9774292
-570.406555175781 0.0923269167542458 75.1802062988281 0.1407573 0.007094884 0.9900187
-575.641052246094 252.352096557617 74.1166305541992 0.1470818 0.007222238 0.989098
-796.855041503906 -2.85808157920837 121.388252258301 0.2579143 -0.001042657 0.9661672
-801.3896484375 249.361221313477 122.870933532715 0.2734914 -0.0007373614 0.9618741
-803.656921386719 375.470886230469 123.612274169922 0.2812587 -0.0005845334 0.9596318
-745.582092285156 250.190948486328 107.961753845215 0.2425915 0.002098578 0.9701263
-691.804443359375 377.090118408203 94.8186950683594 0.2168246 0.004498194 0.9762002
-747.974365234375 376.308258056641 108.287155151367 0.2493147 0.002230511 0.96842
-804.790588378906 438.525695800781 123.982940673828 0.2851363 -0.0005080875 0.9584869
-775.8798828125 375.896453857422 115.719612121582 0.265355 0.0008897677 0.9641504
-749.170471191406 439.366943359375 108.449859619141 0.2526728 0.002296458 0.967549
-777.046508789063 438.953277587891 115.98250579834 0.2689775 0.0009609766 0.963146
-856.687377929688 248.478820800781 139.542297363281 0.303694 -0.004096718 0.9527608
-858.800598144531 374.579254150391 140.758117675781 0.3124192 -0.003923263 0.9499362
-859.857238769531 437.629486083984 141.366012573242 0.3167725 -0.0038364 0.9484938
-831.299072265625 375.03173828125 131.960739135742 0.2969728 -0.002189944 0.9548835
-832.396057128906 438.084350585938 132.446517944336 0.3010948 -0.002108278 0.9535919
4 124 122 0 123
3 126 124 123
3 8 121 126
3 123 8 126
3 115 10 112
3 116 114 115
4 117 119 118 108
3 104 105 106
4 107 111 113 110
4 12 89 97 95
3 94 92 97
3 89 74 94
3 97 89 94
4 97 92 85 96
4 95 97 96 84
3 145 4 146
3 146 93 147
3 101 98 102
3 103 11 101
3 82 148 149
4 67 79 80 78
4 78 80 73 69
3 77 75 88
3 88 72 69
3 69 73 77
3 77 88 69
4 72 88 90 87
3 86 83 90
3 88 75 86
3 90 88 86
3 91 74 89
3 90 83 91
3 89 90 91
4 87 90 89 12
3 65 64 62
3 14 56 65
3 62 14 65
4 62 64 63 58
4 15 52 54 51
4 52 39 53 54
4 54 53 41 43
3 47 38 51
3 54 43 47
3 51 54 47
3 60 41 53
3 53 39 7
3 7 40 60
3 60 53 7
4 38 47 50 46
4 47 43 48 50
4 42 49 57 55
3 59 56 14
3 55 57 59
3 14 55 59
3 1 128 140
3 140 128 109
3 141 129 142
3 2 142 130
3 142 129 130
3 109 129 141
3 127 1 122
3 131 144 2
3 131 100 143
3 143 144 131
3 100 132 3
3 71 3 133
3 131 132 100
3 131 2 130
3 37 127 124
3 128 1 127
3 37 124 126
3 122 124 127
3 125 36 37
3 118 34 35
3 35 36 120
3 37 126 121
3 26 27 76
3 3 132 133
3 27 28 102
3 112 32 33
3 30 106 29
3 32 113 111
3 28 29 103
3 33 34 116
3 109 128 129
3 148 4 135
3 147 134 146
3 148 135 149
3 145 135 4
3 146 134 145
3 147 93 133
3 82 136 68
3 5 137 45
3 137 5 68
3 66 138 6
3 61 139 40
3 139 61 6
3 138 66 45
3 136 82 149
3 133 134 147
3 145 134 135
3 83 23 24
3 23 75 22
3 24 25 91
3 26 85 25
3 6 138 139
3 45 137 138
3 60 139 41
3 48 41 139
3 48 43 41
3 40 139 60
3 22 73 80
3 149 135 136
3 133 93 71
3 99 30 31
3 117 34 119
3 114 34 117
3 115 33 116
3 125 9 36
3 120 108 35
3 9 120 36
3 125 37 121
3 112 33 115
3 31 32 111
3 32 10 110
3 105 29 106
3 30 99 104
3 31 111 107
3 27 102 98
3 76 27 70
3 26 96 85
3 101 102 28
3 85 92 25
3 11 29 105
3 101 28 103
3 118 35 108
3 10 32 112
3 34 114 116
3 32 110 113
3 107 99 31
3 29 11 103
3 98 70 27
3 96 76 84
3 76 96 26
3 30 104 106
3 94 74 25
3 91 83 24
3 74 91 25
3 86 75 23
3 77 73 22
3 75 77 22
3 83 86 23
3 18 19 56
3 20 21 13
3 63 19 20
3 17 18 59
3 49 16 17
3 48 139 16
3 137 68 136
3 22 79 21
3 79 22 80
3 94 25 92
3 20 13 44
3 19 63 64
3 67 81 79
3 81 21 79
3 81 13 21
3 20 58 63
3 44 58 20
3 19 65 56
3 17 59 57
3 18 56 59
3 16 42 46
3 46 50 16
3 42 16 49
3 17 57 49
3 19 64 65
3 48 16 50
3 118 119 34
3 199 198 196
3 151 190 199
3 196 151 199
4 190 194 201 199
4 199 201 200 198
4 196 198 197 150
4 152 189 191 188
4 191 193 195 192
4 192 195 194 190
3 192 190 151
3 188 191 192
3 151 188 192
3 185 184 182
3 154 176 185
3 182 154 185
4 176 180 187 185
4 185 187 186 184
4 182 184 183 153
4 155 175 177 174
4 177 179 181 178
4 178 181 180 176
3 178 176 154
3 174 177 178
3 154 174 178
4 226 150 227 228
4 235 229 236 237
4 237 236 230 231
3 236 229 151
3 196 230 236
3 151 196 236
3 232 230 196
3 150 226 232
3 196 150 232
4 231 230 232 234
4 234 232 226 233
4 240 238 241 243
4 243 241 239 242
3 241 238 152
3 188 239 241
3 152 188 241
4 239 188 151 229
4 244 153 245 246
3 248 246 245
3 152 238 248
3 245 152 248
4 247 246 248 249
4 249 248 238 240
4 269 256 270 271
3 276 271 270
3 258 261 276
3 270 258 276
4 275 271 276 277
4 277 276 261 265
3 270 256 250
3 257 258 270
3 250 257 270
3 262 258 257
3 251 252 262
3 257 251 262
4 265 261 266 268
4 268 266 264 267
3 266 261 258
3 262 264 266
3 258 262 266
4 264 262 252 263
3 257 250 154
3 182 251 257
3 154 182 257
3 253 251 182
3 153 244 253
3 182 153 253
4 252 251 253 255
4 255 253 244 254
4 259 155 174 260
3 273 260 174
3 154 250 273
3 174 154 273
4 272 260 273 274
4 274 273 250 256
4 278 156 279 280
4 280 279 155 259
3 294 292 291
3 282 283 294
3 291 282 294
4 293 292 294 295
4 295 294 283 287
3 284 282 281
3 156 278 284
3 281 156 284
4 287 283 288 290
4 290 288 286 289
3 288 283 282
3 284 286 288
3 282 284 288
4 286 284 278 285
3 172 200 171
3 173 197 172
3 172 197 200
3 227 197 202
3 201 171 200
3 197 198 200
3 202 197 173
3 169 193 168
3 170 194 169
3 170 201 194
3 169 195 193
3 169 194 195
3 201 170 171
3 189 168 193
3 197 227 150
3 228 227 203
3 206 228 204
3 226 228 233
3 228 203 204
3 193 191 189
3 245 183 189
3 168 189 183
3 153 183 245
3 189 152 245
4 239 229 235 242
3 203 227 202
3 167 168 183
3 165 166 187
3 167 186 166
3 183 186 167
3 165 187 180
3 166 186 187
3 183 184 186
3 164 165 180
3 175 162 163
3 164 179 163
3 163 179 175
3 175 179 177
3 162 160 161
3 181 179 164
3 181 164 180
3 279 175 155
3 259 260 272
3 162 279 156
3 160 162 281
3 281 162 156
3 159 160 281
3 285 278 280
3 282 291 281
3 281 291 159
3 280 259 221
3 279 162 175
4 244 246 247 254
3 234 208 231
3 231 209 237
3 235 211 242
3 243 212 240
3 211 243 242
3 210 235 237
3 249 214 247
3 247 215 254
3 216 263 255
3 255 263 252
3 254 215 255
3 240 213 249
3 207 234 233
3 207 233 206
3 208 234 207
3 237 209 210
3 211 235 210
3 209 231 208
3 212 243 211
3 267 264 263
3 216 255 215
3 267 263 216
3 213 214 249
3 214 215 247
3 240 212 213
3 217 267 216
3 206 233 228
3 206 204 205
3 269 274 256
3 274 220 272
3 221 259 272
3 289 285 222
3 275 269 271
3 285 289 286
3 221 222 280
3 158 291 292
3 157 158 292
3 159 291 158
3 223 290 289
3 224 295 287
3 287 290 223
3 269 220 274
3 217 265 268
3 218 277 265
3 218 219 277
3 220 275 219
3 219 275 277
3 217 218 265
3 217 268 267
3 220 269 275
3 285 280 222
3 287 223 224
3 223 289 222
3 221 272 220
3 224 225 295
3 293 225 157
3 295 225 293
3 292 293 157
