ply
format ascii 1.0
comment File exported by Rhinoceros Version 7.0
element vertex 466
property float x
property float y
property float z
property float nx
property float ny
property float nz
element face 517
property list uchar uint vertex_indices
end_header
948.521484375 -627.200073242188 45.2522125244141 -0.1505269 0.2376926 -0.9596061
948.8955078125 -553.428161621094 63.4128036499023 -0.1318251 0.2371699 -0.9624825
949.021911621094 -479.288970947266 81.6517028808594 -0.1135803 0.2373052 -0.9647724
949.042236328125 -405.275756835938 99.8276672363281 -0.0950542 0.2372131 -0.9667961
949.064636230469 -331.423583984375 117.940391540527 -0.07609928 0.2373704 -0.9684339
949.114196777344 -257.677032470703 135.98454284668 -0.05757136 0.237009 -0.9698001
949.175048828125 -183.927978515625 154.010452270508 -0.03985788 0.2379258 -0.9704652
949.23583984375 -110.109329223633 172.278717041016 -0.02294153 0.2430172 -0.9697506
949.296936035156 -36.2395515441895 191.094131469727 -0.006386003 0.2499489 -0.968238
949.35986328125 37.6720008850098 210.193420410156 0.01095756 0.2491455 -0.9684041
949.421325683594 111.608894348145 228.984146118164 0.03028961 0.243063 -0.9695375
949.4765625 185.447067260742 247.319839477539 0.05068438 0.238875 -0.9697267
949.529174804688 259.037719726563 265.332946777344 0.06989424 0.2358179 -0.9692805
949.588928222656 331.296234130859 282.848571777344 0.08730184 0.2338455 -0.9683464
949.67236328125 408.84619140625 301.475830078125 0.1056465 0.2304674 -0.9673281
949.760437011719 478.921630859375 317.981964111328 0.1224614 0.2243695 -0.9667789
949.824157714844 552.873046875 334.868316650391 0.139784 0.2163084 -0.9662666
949.773803710938 626.858520507813 351.108215332031 0.1555434 0.209193 -0.9654245
837.875671386719 -627.025329589844 62.5413208007813 -0.1502594 0.2104602 -0.9659858
838.235595703125 -553.466369628906 78.5016555786133 -0.1323114 0.2109261 -0.968506
838.33544921875 -479.338317871094 94.6464691162109 -0.114311 0.2113824 -0.9706959
838.346313476563 -405.262512207031 110.716194152832 -0.09604107 0.2103843 -0.9728898
838.363830566406 -331.367889404297 126.670448303223 -0.07743751 0.210351 -0.9745542
838.406433105469 -257.621215820313 142.612884521484 -0.05930329 0.2114487 -0.9755883
838.458374023438 -183.895324707031 158.656600952148 -0.04208559 0.213827 -0.9759645
838.50927734375 -110.101379394531 175.026519775391 -0.0252525 0.219544 -0.9752757
838.559936523438 -36.2391738891602 191.921722412109 -0.007847979 0.2255109 -0.974209
838.614135742188 37.6887016296387 208.98274230957 0.01052079 0.2227327 -0.9748228
838.672180175781 111.673683166504 225.535827636719 0.03036872 0.2136701 -0.9764338
838.727966308594 185.571716308594 241.513412475586 0.05125277 0.2095616 -0.9764513
838.776794433594 259.148712158203 257.296081542969 0.07098696 0.2093643 -0.9752576
838.82568359375 331.262908935547 272.773376464844 0.08880303 0.2085518 -0.9739714
838.895202636719 408.594329833984 289.219940185547 0.1077011 0.2047759 -0.9728655
838.968505859375 478.585968017578 303.768707275391 0.1246046 0.1990208 -0.9720414
839 552.660278320313 318.720367431641 0.1413461 0.1929861 -0.9709674
838.859802246094 626.940612792969 333.246124267578 0.1563854 0.1878379 -0.9696703
726.177062988281 -626.848083496094 80.0274047851563 -0.1524878 0.1844722 -0.9709364
726.359985351563 -553.447021484375 93.9220733642578 -0.1352903 0.1844102 -0.9734934
726.39404296875 -479.339538574219 107.937576293945 -0.1168762 0.1842268 -0.9759101
726.402038574219 -405.243988037109 121.878479003906 -0.09852599 0.1835588 -0.9780587
726.428771972656 -331.342895507813 135.738906860352 -0.08078803 0.183933 -0.9796131
726.47216796875 -257.605072021484 149.63200378418 -0.06317644 0.185644 -0.980584
726.518798828125 -183.896255493164 163.674102783203 -0.04543364 0.1884817 -0.9810252
726.562744140625 -110.117797851563 178.028137207031 -0.02709009 0.1935762 -0.9807112
726.605346679688 -36.2616844177246 192.833511352539 -0.008053462 0.1986856 -0.9800302
726.650451660156 37.6604385375977 207.755569458008 0.01094014 0.1954658 -0.9806495
726.701354980469 111.645378112793 222.092651367188 0.02992343 0.1846852 -0.9823421
726.753845214844 185.567825317383 235.759094238281 0.04942754 0.1798754 -0.9824468
726.798156738281 259.175842285156 249.278091430664 0.06899419 0.1812505 -0.9810138
726.835327148438 331.297546386719 262.633331298828 0.08784407 0.1811663 -0.9795214
726.880065917969 408.610443115234 276.834442138672 0.1076467 0.1778549 -0.9781512
726.925109863281 478.576812744141 289.419921875 0.1246124 0.173612 -0.9768985
726.959594726563 552.639587402344 302.439270019531 0.1412607 0.1694068 -0.97537
726.925109863281 626.959716796875 315.192230224609 0.1570167 0.1656411 -0.9736061
614.366821289063 -626.758972167969 97.7056884765625 -0.154781 0.1589537 -0.9750777
614.3955078125 -553.44140625 109.586364746094 -0.1374502 0.1575463 -0.9778991
614.394409179688 -479.335906982422 121.457550048828 -0.1190964 0.1564796 -0.9804745
614.412109375 -405.232330322266 133.282379150391 -0.1009154 0.1569637 -0.982435
614.450317382813 -331.3388671875 145.114440917969 -0.08329751 0.1580019 -0.9839191
614.492980957031 -257.610412597656 156.983276367188 -0.06548364 0.1591774 -0.9850758
614.532348632813 -183.908447265625 168.958358764648 -0.04703308 0.1613443 -0.9857768
614.568664550781 -110.133071899414 181.159942626953 -0.02767339 0.1651525 -0.9858797
614.603637695313 -36.2747230529785 193.730239868164 -0.007545957 0.1698227 -0.9854457
614.640075683594 37.6423187255859 206.44255065918 0.01222721 0.1676745 -0.9857666
614.681396484375 111.607803344727 218.651016235352 0.0307626 0.1575144 -0.9870374
614.7255859375 185.517654418945 230.192962646484 0.04874463 0.1519432 -0.9871865
614.763610839844 259.142181396484 241.535568237305 0.06732698 0.1526429 -0.9859854
614.791809082031 331.302856445313 252.726028442383 0.08617231 0.1524551 -0.9845465
614.815124511719 408.653167724609 264.630981445313 0.1062078 0.1500418 -0.9829585
614.833068847656 478.620269775391 275.22900390625 0.1235682 0.1474624 -0.9813184
614.868591308594 552.646728515625 286.268371582031 0.1409432 0.1446693 -0.9793905
614.948974609375 626.926513671875 297.140045166016 0.1575836 0.1416651 -0.9772913
502.677459716797 -626.7333984375 115.492454528809 -0.1562785 0.1323016 -0.9788122
502.650970458984 -553.441040039063 125.314918518066 -0.13832 0.1302796 -0.9817814
502.656097412109 -479.328460693359 135.073287963867 -0.1201961 0.1291208 -0.9843174
502.686584472656 -405.221374511719 144.819137573242 -0.1021816 0.1302299 -0.9862044
502.726257324219 -331.332092285156 154.611282348633 -0.08413072 0.1313457 -0.9877602
502.761566162109 -257.607055664063 164.423751831055 -0.0659005 0.1318756 -0.9890733
502.792053222656 -183.90771484375 174.279373168945 -0.04709705 0.1329784 -0.9899993
502.821014404297 -110.135238647461 184.260452270508 -0.02729321 0.1353918 -0.9904162
502.849548339844 -36.2748565673828 194.519638061523 -0.006577378 0.1394715 -0.9902043
502.878814697266 37.6441497802734 204.953414916992 0.01396059 0.138881 -0.9902107
502.910797119141 111.594955444336 215.055633544922 0.03283167 0.1311612 -0.9908172
502.945526123047 185.482452392578 224.595245361328 0.05041179 0.1254092 -0.9908235
502.977111816406 259.104614257813 233.869873046875 0.06831905 0.1246753 -0.9898427
503.000396728516 331.284057617188 242.954925537109 0.08643695 0.1240746 -0.988501
503.016235351563 408.657867431641 252.60173034668 0.1058736 0.1220034 -0.9868667
503.024932861328 478.631805419922 261.195495605469 0.1232988 0.1202442 -0.9850577
503.053192138672 552.640869140625 270.179656982422 0.141353 0.1184414 -0.9828484
503.157562255859 626.880249023438 279.062683105469 0.1588661 0.1161612 -0.9804428
391.137939453125 -626.728881835938 133.344146728516 -0.1574087 0.1040972 -0.9820317
391.115814208984 -553.433288574219 141.039688110352 -0.1389174 0.1024421 -0.9849911
391.137023925781 -479.315277099609 148.704772949219 -0.1207466 0.1019768 -0.9874315
391.170928955078 -405.208404541016 156.384582519531 -0.1025959 0.1030335 -0.9893726
391.201538085938 -331.319549560547 164.108795166016 -0.08430325 0.1040177 -0.9909961
391.226501464844 -257.595794677734 171.862213134766 -0.06622385 0.1044911 -0.9923185
391.249359130859 -183.899215698242 179.611480712891 -0.04779328 0.1043366 -0.993393
391.271484375 -110.130508422852 187.36408996582 -0.02815195 0.1049693 -0.9940769
391.293823242188 -36.2700500488281 195.274780273438 -0.007189471 0.1079903 -0.994126
391.317016601563 37.6539421081543 203.353256225586 0.01413188 0.1085225 -0.9939935
391.341369628906 111.600234985352 211.278442382813 0.03399986 0.1039732 -0.9939988
391.368225097656 185.472778320313 218.815460205078 0.05207921 0.09911011 -0.9937127
391.394409179688 259.086975097656 226.089874267578 0.06966925 0.09764851 -0.9927794
391.414825439453 331.267181396484 233.169540405273 0.08699101 0.09684196 -0.9914909
391.430847167969 408.643981933594 240.65461730957 0.105613 0.09458155 -0.9898991
391.441345214844 478.620849609375 247.274490356445 0.1227374 0.09261391 -0.9881084
391.461151123047 552.627807617188 254.158294677734 0.1411129 0.09090214 -0.9858113
391.530426025391 626.845642089844 260.954620361328 0.1593421 0.08929635 -0.9831766
279.64697265625 -626.717834472656 151.218170166016 -0.1580303 0.07522425 -0.9845647
279.639953613281 -553.4140625 156.774963378906 -0.1397629 0.07441586 -0.9873847
279.668426513672 -479.295135498047 162.351577758789 -0.1216217 0.07455734 -0.9897724
279.69580078125 -405.190216064453 167.948883056641 -0.1032698 0.0752942 -0.9917995
279.714080810547 -331.302154541016 173.595886230469 -0.08493666 0.07657588 -0.9934394
279.731536865234 -257.581573486328 179.324493408203 -0.06706938 0.07762069 -0.9947245
279.750366210938 -183.890289306641 185.034957885742 -0.04916755 0.07643521 -0.9958615
279.767608642578 -110.12744140625 190.630416870117 -0.03035125 0.07502435 -0.9967197
279.7841796875 -36.2686767578125 196.21321105957 -0.009851712 0.07591394 -0.9970657
279.801361083984 37.6600036621094 201.882034301758 0.01170815 0.07675034 -0.9969816
279.819122314453 111.607223510742 207.533462524414 0.03234022 0.07521192 -0.996643
279.838928222656 185.47265625 212.996978759766 0.05124816 0.07217599 -0.9960744
279.858459472656 259.079406738281 218.284454345703 0.06908744 0.07116543 -0.995069
279.873107910156 331.253753662109 223.430877685547 0.08617546 0.07049061 -0.9937831
279.886810302734 408.624969482422 228.827774047852 0.1045634 0.06765909 -0.9922141
279.899780273438 478.601257324219 233.499465942383 0.1216776 0.06475442 -0.9904552
279.913482666016 552.610900878906 238.265838623047 0.1401268 0.06280515 -0.9881397
279.938018798828 626.818664550781 242.940322875977 0.1583968 0.06160283 -0.9854519
168.113388061523 -626.690185546875 169.234024047852 -0.1610347 0.04691168 -0.9858332
168.119369506836 -553.384948730469 172.716659545898 -0.1433679 0.04688986 -0.9885581
168.153198242188 -479.269836425781 176.220932006836 -0.1252895 0.04685921 -0.991013
168.174163818359 -405.168273925781 179.729782104492 -0.1069414 0.04736735 -0.9931364
168.183868408203 -331.282562255859 183.306488037109 -0.08867409 0.04903316 -0.9948531
168.196258544922 -257.565368652344 187.003067016602 -0.07039858 0.05041453 -0.9962441
168.211715698242 -183.879455566406 190.684371948242 -0.05203053 0.0488553 -0.9974498
168.225128173828 -110.124031066895 194.19075012207 -0.03340903 0.04608473 -0.9983787
168.236450195313 -36.2694206237793 197.528106689453 -0.01376419 0.04448666 -0.9989151
168.247161865234 37.6607208251953 200.823577880859 0.006990298 0.0447509 -0.9989737
168.257965087891 111.608657836914 204.151870727539 0.02781532 0.0449891 -0.9986002
168.269744873047 185.469818115234 207.439727783203 0.04782364 0.04379359 -0.9978953
168.280181884766 259.069915771484 210.664627075195 0.06687485 0.04378528 -0.9968002
168.286651611328 331.238189697266 213.831619262695 0.0850632 0.04339106 -0.9954303
168.295150756836 408.604675292969 217.10090637207 0.104349 0.04020732 -0.9937276
168.305847167969 478.579803466797 219.813171386719 0.1216862 0.03681922 -0.9918855
168.310302734375 552.589965820313 222.478790283203 0.1399197 0.03482085 -0.9895504
168.302825927734 626.789978027344 225.037017822266 0.1582434 0.03343076 -0.986834
56.5349617004395 -626.656127929688 187.883926391602 -0.1686945 0.01929269 -0.9854795
56.5387763977051 -553.354675292969 189.300430297852 -0.1505844 0.01878592 -0.9884186
56.5767402648926 -479.245758056641 190.680877685547 -0.1316036 0.01840867 -0.9911315
56.5971794128418 -405.149200439453 192.07551574707 -0.1127528 0.01923794 -0.9934368
56.6034164428711 -331.267181396484 193.568161010742 -0.09411088 0.02094092 -0.9953415
56.6090126037598 -257.552154541016 195.159332275391 -0.07500471 0.02169884 -0.9969471
56.6157722473145 -183.869323730469 196.711807250977 -0.05548379 0.02006859 -0.9982579
56.6214637756348 -110.119537353516 198.095001220703 -0.03615702 0.01733471 -0.9991958
56.6255683898926 -36.2695159912109 199.276443481445 -0.01717141 0.0148463 -0.9997423
56.6285552978516 37.659294128418 200.334136962891 0.002159595 0.01394639 -0.9999004
56.6314582824707 111.606033325195 201.346282958984 0.02274442 0.01341297 -0.9996513
56.6350364685059 185.462875366211 202.311645507813 0.04415476 0.01280921 -0.9989426
56.6379508972168 259.057006835938 203.283218383789 0.065157 0.01374409 -0.9977804
56.6391181945801 331.221527099609 204.303329467773 0.08496566 0.01418336 -0.9962829
56.6420745849609 408.585998535156 205.330993652344 0.1051996 0.01178053 -0.9943814
56.6443328857422 478.559265136719 206.052307128906 0.1228327 0.008715672 -0.9923891
56.6369514465332 552.566345214844 206.613998413086 0.1413146 0.00653694 -0.9899431
56.6241874694824 626.759460449219 207.033294677734 0.1599638 0.004846429 -0.987111
-55.0959968566895 -626.625366210938 207.353149414063 -0.1740573 -0.008132445 -0.9847019
-55.126293182373 -553.329223632813 206.638427734375 -0.1554888 -0.01095323 -0.9877769
-55.0926895141602 -479.225677490234 205.770599365234 -0.1355749 -0.01165112 -0.9906986
-55.0701179504395 -405.133911132813 204.943557739258 -0.1155896 -0.01022031 -0.9932445
-55.0654983520508 -331.255645751953 204.255264282227 -0.09577253 -0.008501581 -0.9953669
-55.0685272216797 -257.542724609375 203.639083862305 -0.07579833 -0.008474374 -0.9970872
-55.0737571716309 -183.861953735352 202.961227416992 -0.05577729 -0.01002006 -0.9983929
-55.0788192749023 -110.115615844727 202.154647827148 -0.03616077 -0.0117915 -0.9992764
-55.083438873291 -36.2688674926758 201.23046875 -0.01740745 -0.01325284 -0.9997606
-55.0882148742676 37.6579666137695 200.179092407227 0.001242587 -0.01540227 -0.9998806
-55.0925483703613 111.60181427002 198.913284301758 0.02144032 -0.01879442 -0.9995934
-55.0949478149414 185.453475952148 197.459411621094 0.04298941 -0.02003927 -0.9988745
-55.0959777832031 259.042999267578 196.038269042969 0.06427183 -0.01814363 -0.9977674
-55.0985412597656 331.205871582031 194.802764892578 0.08423001 -0.01622095 -0.9963143
-55.1053771972656 408.569244384766 193.520156860352 0.1046604 -0.01733746 -0.9943569
-55.1185188293457 478.539306640625 192.211975097656 0.1225858 -0.01983991 -0.9922596
-55.1364822387695 552.541748046875 190.641052246094 0.1411827 -0.02212327 -0.9897363
-55.1192817687988 626.729614257813 188.915023803711 0.1596187 -0.02358848 -0.9868969
-166.826995849609 -626.595825195313 227.092727661133 -0.1729219 -0.035584 -0.9842926
-166.923965454102 -553.306518554688 224.242782592773 -0.1547363 -0.04088655 -0.9871094
-166.90348815918 -479.206970214844 221.094543457031 -0.135315 -0.04242736 -0.9898938
-166.877716064453 -405.118377685547 217.958984375 -0.1152064 -0.04115304 -0.9924887
-166.874038696289 -331.243408203125 214.968383789063 -0.09470619 -0.03948567 -0.9947219
-166.884902954102 -257.533660888672 212.061645507813 -0.074256 -0.03924682 -0.9964666
-166.899459838867 -183.854919433594 209.143905639648 -0.05454095 -0.03983717 -0.9977165
-166.912445068359 -110.110084533691 206.169616699219 -0.03557206 -0.0406741 -0.998539
-166.924118041992 -36.266185760498 203.135635375977 -0.01659253 -0.04161407 -0.998996
-166.935440063477 37.656623840332 199.956390380859 0.002910291 -0.04478792 -0.9989923
-166.945327758789 111.595291137695 196.438858032227 0.02291907 -0.05015568 -0.9984784
-166.951873779297 185.441345214844 192.639526367188 0.04304119 -0.05173181 -0.9977331
-166.957260131836 259.028289794922 188.907165527344 0.0627358 -0.04893693 -0.9968297
-166.968673706055 331.191833496094 185.472366333008 0.08170129 -0.04616246 -0.9955872
-166.996017456055 408.554473876953 181.879287719727 0.1019605 -0.04677859 -0.993688
-167.035034179688 478.520843505859 178.516052246094 0.1199428 -0.04855343 -0.9915928
-167.062957763672 552.518310546875 174.818389892578 0.1382852 -0.05038216 -0.9891101
-166.977127075195 626.702514648438 170.990753173828 0.1563398 -0.05153532 -0.9863579
-278.585388183594 -626.565246582031 246.521774291992 -0.1690784 -0.06269308 -0.9836067
-278.756988525391 -553.284729003906 241.614059448242 -0.1516237 -0.06934423 -0.9860029
-278.76611328125 -479.189544677734 236.279968261719 -0.1331393 -0.07217203 -0.988466
-278.744049072266 -405.103454589844 230.876007080078 -0.113802 -0.07186685 -0.9909008
-278.741058349609 -331.231353759766 225.568008422852 -0.09379022 -0.07073394 -0.9930761
-278.757202148438 -257.525695800781 220.354064941406 -0.07360096 -0.06987145 -0.9948371
-278.777679443359 -183.84880065918 215.227752685547 -0.05407599 -0.06883288 -0.9961615
-278.795257568359 -110.103713989258 210.134246826172 -0.03518419 -0.06912689 -0.9969872
-278.812377929688 -36.2630996704102 204.953430175781 -0.01590893 -0.07108629 -0.9973433
-278.830139160156 37.6530647277832 199.56330871582 0.003844305 -0.07466712 -0.9972011
-278.845764160156 111.58617401123 193.840515136719 0.02305822 -0.07950877 -0.9965674
-278.857299804688 185.428329467773 187.871398925781 0.0416567 -0.08077614 -0.9958614
-278.869903564453 259.014343261719 181.994522094727 0.06024922 -0.0777749 -0.9951488
-278.895263671875 331.18017578125 176.446243286133 0.07882271 -0.07549005 -0.9940262
-278.950897216797 408.543182373047 170.550979614258 0.09907915 -0.07618336 -0.9921589
-279.022277832031 478.506500244141 165.133682250977 0.1170019 -0.07697969 -0.9901438
-279.056365966797 552.499084472656 159.333465576172 0.1352795 -0.07817575 -0.9877186
-278.883880615234 626.680725097656 153.421569824219 0.1534942 -0.07945668 -0.9849498
-385.409057617188 -626.53515625 264.714233398438 -0.1660396 -0.08815429 -0.9821709
-385.593475341797 -553.265747070313 257.894409179688 -0.1488464 -0.09517598 -0.9842694
-385.650146484375 -479.17529296875 250.578598022461 -0.1312354 -0.09901874 -0.9863937
-385.655181884766 -405.091583251953 243.107498168945 -0.1128452 -0.09987187 -0.9885806
-385.660095214844 -331.222320556641 235.664001464844 -0.09372411 -0.09951605 -0.9906121
-385.678771972656 -257.520446777344 228.293807983398 -0.07419915 -0.09860329 -0.9923567
-385.702209472656 -183.846099853516 221.052963256836 -0.0545266 -0.09677143 -0.9938119
-385.723785400391 -110.101867675781 213.896057128906 -0.03498379 -0.09665342 -0.9947031
-385.746032714844 -36.2629928588867 206.648712158203 -0.01581844 -0.09892908 -0.9949688
-385.77001953125 37.6499824523926 199.183319091797 0.002969194 -0.1021738 -0.9947621
-385.792633056641 111.581314086914 191.447952270508 0.02125775 -0.1058158 -0.9941585
-385.811431884766 185.421157836914 183.507568359375 0.03949801 -0.1073532 -0.993436
-385.832702636719 259.004241943359 175.627059936523 0.0582493 -0.1048918 -0.9927763
-385.869781494141 331.171234130859 168.068511962891 0.07687195 -0.1032759 -0.9916778
-385.940124511719 408.534942626953 159.974075317383 0.0970147 -0.1042064 -0.9898127
-386.021331787109 478.494110107422 152.57746887207 0.1153498 -0.1044291 -0.9878203
-386.050720214844 552.480346679688 144.726135253906 0.1344683 -0.105185 -0.9853194
-385.864532470703 626.662719726563 136.767501831055 0.1531916 -0.106454 -0.9824458
-501.259216308594 -626.498474121094 284.271850585938 -0.1656981 -0.1155413 -0.9793847
-501.298736572266 -553.242919921875 275.359924316406 -0.148375 -0.1225374 -0.9813101
-501.401336669922 -479.155303955078 265.969360351563 -0.1309987 -0.1265119 -0.9832772
-501.466735839844 -405.0712890625 256.366058349609 -0.1133735 -0.1285449 -0.9852018
-501.498626708984 -331.204803466797 246.718948364258 -0.09525172 -0.1290266 -0.9870558
-501.521881103516 -257.506561279297 237.09375 -0.07651362 -0.1288993 -0.9887015
-501.547088623047 -183.837936401367 227.534927368164 -0.05672096 -0.1278937 -0.9901646
-501.57421875 -110.100227355957 218.046966552734 -0.03643076 -0.1272406 -0.9912026
-501.60302734375 -36.2617111206055 208.560211181641 -0.01713073 -0.1278459 -0.9916461
-501.633605957031 37.6549415588379 198.944732666016 0.001120015 -0.1304165 -0.9914587
-501.664642333984 111.588165283203 189.084548950195 0.01939937 -0.1339855 -0.9907934
-501.69384765625 185.424758911133 178.981033325195 0.03823521 -0.1365449 -0.9898958
-501.726348876953 259.001251220703 168.884292602539 0.05727451 -0.1344086 -0.9892694
-501.767456054688 331.163482666016 159.14826965332 0.07567021 -0.1327395 -0.9882582
-501.811065673828 408.516937255859 148.691345214844 0.09559126 -0.1345665 -0.986283
-501.841033935547 478.463500976563 139.098083496094 0.1143291 -0.1352539 -0.9841927
-501.856323242188 552.44677734375 128.910446166992 0.1342317 -0.1355085 -0.9816411
-501.863128662109 626.645629882813 118.63264465332 0.1533857 -0.1359193 -0.9787741
-612.293518066406 -626.469116210938 303.116973876953 -0.1662641 -0.1411416 -0.9759279
-612.067687988281 -553.220336914063 292.159332275391 -0.1488035 -0.1491259 -0.9775577
-612.179992675781 -479.134002685547 280.735382080078 -0.1305811 -0.1527298 -0.9796031
-612.30712890625 -405.042724609375 269.129547119141 -0.1129124 -0.1546222 -0.9815003
-612.373291015625 -331.171295166016 257.475769042969 -0.09567027 -0.1555956 -0.9831771
-612.406188964844 -257.474609375 245.767318725586 -0.07756077 -0.1571152 -0.9845299
-612.436645507813 -183.817138671875 233.975875854492 -0.05776434 -0.1580859 -0.9857343
-612.472045898438 -110.0947265625 222.186431884766 -0.03718264 -0.1571296 -0.9868778
-612.508850097656 -36.2623863220215 210.510131835938 -0.01744482 -0.1554515 -0.9876895
-612.54541015625 37.6598091125488 198.840270996094 0.001002836 -0.1570047 -0.9875973
-612.582763671875 111.59984588623 186.923309326172 0.01930999 -0.1613936 -0.9867012
-612.621276855469 185.438766479492 174.697296142578 0.0380769 -0.1645311 -0.9856367
-612.664855957031 259.012329101563 162.478103637695 0.05668539 -0.1620199 -0.985158
-612.700927734375 331.155700683594 150.687637329102 0.07480553 -0.160355 -0.9842207
-612.685363769531 408.466156005859 137.978240966797 0.09481125 -0.1635706 -0.9819651
-612.625915527344 478.386077880859 126.253875732422 0.1136059 -0.165017 -0.979726
-612.637390136719 552.386840820313 113.77921295166 0.1333697 -0.1646375 -0.9772958
-612.989379882813 626.632629394531 101.23503112793 0.1522119 -0.1638446 -0.9746725
-723.705444335938 -626.463012695313 322.188232421875 -0.1672367 -0.1661189 -0.9718212
-723.308410644531 -553.203491210938 309.160186767578 -0.1493663 -0.1766207 -0.9728796
-723.400573730469 -479.124938964844 295.570281982422 -0.1302717 -0.1801879 -0.9749675
-723.5498046875 -405.026489257813 281.898529052734 -0.112029 -0.1803701 -0.9771981
-723.631774902344 -331.140502929688 268.267395019531 -0.09456967 -0.1812709 -0.9788756
-723.675048828125 -257.440979003906 254.498245239258 -0.07636769 -0.1849499 -0.9797763
-723.717468261719 -183.799163818359 240.47102355957 -0.05679276 -0.1879357 -0.980538
-723.7646484375 -110.097259521484 226.382965087891 -0.03695625 -0.1865588 -0.9817485
-723.809814453125 -36.2732200622559 212.507446289063 -0.01805592 -0.1829578 -0.982955
-723.851196289063 37.6586418151855 198.774032592773 -0.0001556576 -0.1831888 -0.9830778
-723.8916015625 111.612686157227 184.800720214844 0.01782619 -0.1884732 -0.9819165
-723.934509277344 185.459213256836 170.458129882813 0.03642309 -0.1919042 -0.9807376
-723.983703613281 259.029541015625 156.128646850586 0.05521366 -0.1893063 -0.9803645
-724.017272949219 331.1396484375 142.263900756836 0.07382265 -0.188162 -0.9793596
-723.972717285156 408.383331298828 127.260795593262 0.09407777 -0.1925612 -0.9767649
-723.873840332031 478.269500732422 113.395477294922 0.1125778 -0.1940994 -0.9745007
-723.903015136719 552.305114746094 98.6680603027344 0.1315439 -0.1926252 -0.9724154
-724.461242675781 626.607666015625 83.932502746582 0.1495632 -0.1908511 -0.9701581
-830.53466796875 -626.463806152344 340.645538330078 -0.1677113 -0.1898867 -0.9673758
-830.232788085938 -553.1611328125 325.646881103516 -0.1501192 -0.2030209 -0.9675984
-830.3056640625 -479.10791015625 309.934661865234 -0.131523 -0.2068914 -0.9694832
-830.423950195313 -405.026641845703 294.202423095703 -0.1128901 -0.2058135 -0.9720579
-830.493957519531 -331.135833740234 278.577301025391 -0.09412296 -0.2066952 -0.9738675
-830.5439453125 -257.431732177734 262.768615722656 -0.07498733 -0.2115351 -0.9744895
-830.600769042969 -183.797653198242 246.626419067383 -0.056009 -0.2150827 -0.9749884
-830.660339355469 -110.10376739502 230.442260742188 -0.03773714 -0.2127319 -0.9763816
-830.713562011719 -36.276294708252 214.562271118164 -0.01996754 -0.2079477 -0.9779361
-830.760192871094 37.6666221618652 198.891494750977 -0.002166993 -0.2077828 -0.9781726
-830.803771972656 111.622268676758 182.954620361328 0.01598335 -0.2139676 -0.97671
-830.847473144531 185.45556640625 166.584854125977 0.03448108 -0.2179573 -0.975349
-830.897521972656 259.00927734375 150.186080932617 0.05351435 -0.2161104 -0.9749013
-830.943237304688 331.108856201172 134.245132446289 0.07272431 -0.2153205 -0.9738317
-830.941345214844 408.349456787109 116.988670349121 0.0929896 -0.2198273 -0.9710968
-830.899963378906 478.237609863281 101.093933105469 0.1106773 -0.2206272 -0.9690584
-830.952575683594 552.281311035156 84.2968139648438 0.1286618 -0.2179745 -0.9674364
-831.370971679688 626.555908203125 67.5892562866211 0.1463663 -0.2159733 -0.9653665
-948.139282226563 -626.429016113281 361.075836181641 -0.1673457 -0.216051 -0.9619342
-948.258850097656 -552.994995117188 344.019134521484 -0.1503817 -0.2297637 -0.9615581
-948.374572753906 -479.008941650391 326.116180419922 -0.1330912 -0.2349782 -0.9628458
-948.437866210938 -405.025482177734 308.081146240234 -0.1144772 -0.2352227 -0.9651763
-948.469604492188 -331.175476074219 290.059143066406 -0.0945963 -0.2369418 -0.9669075
-948.510009765625 -257.468994140625 271.853912353516 -0.07479807 -0.2408741 -0.9676698
-948.568908691406 -183.813522338867 253.449020385742 -0.05655081 -0.2422468 -0.9685652
-948.633056640625 -110.094017028809 235.138549804688 -0.03958417 -0.2388893 -0.9702396
-948.693603515625 -36.255916595459 217.147033691406 -0.02235647 -0.2348188 -0.971782
-948.750671386719 37.6624374389648 199.296569824219 -0.004103622 -0.2356333 -0.9718334
-948.806518554688 111.554550170898 181.147018432617 0.01435952 -0.2417617 -0.9702294
-948.864379882813 185.316299438477 162.568466186523 0.03241236 -0.2459038 -0.9687521
-948.934753417969 258.860809326172 143.874954223633 0.05097733 -0.2457597 -0.9679894
-949.024475097656 331.091003417969 125.540618896484 0.07022192 -0.2455354 -0.9668409
-949.120300292969 408.583557128906 105.71949005127 0.09048457 -0.2485849 -0.9643745
-949.174194335938 478.590698242188 87.644775390625 0.1077537 -0.2479945 -0.9627501
-949.181457519531 552.506408691406 68.6922225952148 0.1255691 -0.245096 -0.9613326
-949.11865234375 626.452514648438 49.909008026123 0.1436277 -0.2437289 -0.9591492
1060.00427246094 -700.531433105469 7.18640518188477 -0.1692589 0.2650329 -0.9492676
1052.28015136719 -700.529541015625 8.56408882141113 -0.1693191 0.2632676 -0.949748
991.049560546875 -700.514343261719 19.4708061218262 -0.1694755 0.2490032 -0.9535593
929.809265136719 -700.499328613281 30.3233737945557 -0.1689412 0.2342757 -0.9573786
872.646240234375 -700.4853515625 40.3789939880371 -0.1684643 0.2202411 -0.960788
815.475036621094 -700.471435546875 50.3879623413086 -0.1684754 0.2062523 -0.9638859
757.608337402344 -700.457397460938 60.5026969909668 -0.168968 0.1924283 -0.9666546
699.74462890625 -700.443359375 70.6340713500977 -0.1699646 0.1788702 -0.9690807
641.48291015625 -700.429077148438 80.8805770874023 -0.1712034 0.1653261 -0.9712655
583.22998046875 -700.414794921875 91.1769561767578 -0.1724241 0.1516989 -0.9732715
524.877685546875 -700.400390625 101.542869567871 -0.1736237 0.1377896 -0.975125
466.534271240234 -700.385925292969 111.958778381348 -0.1747861 0.1235945 -0.9768184
408.211242675781 -700.371398925781 122.418029785156 -0.1757196 0.1091172 -0.9783742
349.892852783203 -700.356872558594 132.903198242188 -0.1762297 0.09431817 -0.97982
291.589538574219 -700.34228515625 143.395767211914 -0.1766785 0.07917381 -0.9810791
233.290283203125 -700.327697753906 153.910903930664 -0.1774258 0.06378534 -0.9820649
174.981292724609 -700.31298828125 164.483612060547 -0.1790498 0.04835233 -0.9826511
116.696189880371 -700.298095703125 175.187591552734 -0.1821237 0.03335675 -0.9827096
58.404483795166 -700.282958984375 186.099609375 -0.1856414 0.01922722 -0.9824294
0.148215636610985 -700.267517089844 197.200653076172 -0.1886015 0.005929888 -0.9820358
-58.1079063415527 -700.251831054688 208.453521728516 -0.1904208 -0.006772149 -0.9816792
-116.35294342041 -700.236145019531 219.763870239258 -0.1905129 -0.01933251 -0.9814943
-174.562301635742 -700.220458984375 231.03337097168 -0.1894064 -0.03217302 -0.9813716
-232.787353515625 -700.204895019531 242.221710205078 -0.1876235 -0.04537756 -0.9811923
-290.917541503906 -700.189514160156 253.278671264648 -0.1856674 -0.05889085 -0.9808463
-349.066284179688 -700.17431640625 264.238098144531 -0.1840396 -0.07265141 -0.9802302
-407.210418701172 -700.1591796875 275.121948242188 -0.1829322 -0.08651645 -0.9793113
-465.360534667969 -700.144104003906 285.974060058594 -0.182537 -0.1002171 -0.9780781
-524.039245605469 -700.128845214844 296.930358886719 -0.1824951 -0.1136365 -0.9766178
-582.71533203125 -700.113586425781 307.900299072266 -0.1824435 -0.1266712 -0.9750224
-642.914184570313 -700.097900390625 319.174468994141 -0.182555 -0.1397195 -0.9732174
-703.106079101563 -700.082214355469 330.48583984375 -0.1829812 -0.1525016 -0.9712163
-762.846557617188 -700.066528320313 341.765838623047 -0.1834704 -0.165036 -0.9690726
-822.576721191406 -700.05078125 353.100311279297 -0.183972 -0.1776488 -0.9667447
-875.146606445313 -700.036804199219 363.129547119141 -0.1845202 -0.1890759 -0.9644701
-927.707946777344 -700.022827148438 373.203582763672 -0.1847806 -0.2009199 -0.9620225
-978.442749023438 -700.009216308594 382.9560546875 -0.1846708 -0.2126312 -0.9595231
-1029.17468261719 -699.995666503906 392.723114013672 -0.1843688 -0.2245009 -0.9568738
948.235595703125 -662.322998046875 36.5812644958496 -0.1595273 0.2382411 -0.9580147
1001.0419921875 -627.232482910156 36.972282409668 -0.1511577 0.250643 -0.9562057
1000.83764648438 -662.458374023438 27.7550735473633 -0.1600682 0.2511071 -0.9546326
1000.71478271484 -681.545776367188 22.7516536712646 -0.164828 0.2512262 -0.9537909
1029.30895996094 -662.520751953125 22.9581565856934 -0.1601614 0.2579257 -0.9527973
1029.22241210938 -681.645202636719 17.7929725646973 -0.1648666 0.2579758 -0.9519808
1029.17578125 -691.768371582031 15.0572748184204 -0.1673335 0.2579618 -0.9515541
1044.30261230469 -681.69580078125 15.1664524078369 -0.1648307 0.2614994 -0.9510252
1044.26733398438 -691.830017089844 12.3855819702148 -0.1672827 0.2614667 -0.9506059
-1035.09094238281 -695.221069335938 392.734893798828 -0.1831688 -0.2262078 -0.9567023
-1059.99133300781 -675.859680175781 392.785491943359 -0.1782369 -0.2337088 -0.9558304
-1001.04870605469 -626.397033691406 370.272277832031 -0.1668489 -0.227922 -0.9592773
-948.104919433594 -661.350524902344 368.785949707031 -0.1756299 -0.2095207 -0.9619019
-1000.78161621094 -661.402893066406 378.419525146484 -0.1752653 -0.2216456 -0.9592472
-1029.61376953125 -661.430725097656 383.694488525391 -0.1750149 -0.22833 -0.957724
-1000.61480712891 -680.367309570313 382.747406005859 -0.1798412 -0.2193644 -0.9589246
-1029.3623046875 -680.424987792969 388.153442382813 -0.1796298 -0.2260795 -0.9574034
-1060.03918457031 -614.371398925781 377.482818603516 -0.1633853 -0.2434895 -0.9560429
-1060.10107421875 -538.788757324219 357.731628417969 -0.1463063 -0.255273 -0.9557354
-1060.16589355469 -462.250213623047 337.035339355469 -0.1286609 -0.2610092 -0.9567239
-1060.23193359375 -385.203521728516 315.937225341797 -0.1090184 -0.2635913 -0.9584543
-1060.29870605469 -308.080535888672 294.640258789063 -0.08831961 -0.2664736 -0.9597872
-1060.36584472656 -231.030380249023 273.183502197266 -0.06858128 -0.2679042 -0.9610015
-1060.43286132813 -154.017211914063 251.810195922852 -0.05046155 -0.2654011 -0.9628167
-1060.49865722656 -76.9985046386719 230.77229309082 -0.03267732 -0.2613677 -0.964686
-1060.56384277344 0.0107333064079285 209.987869262695 -0.01393337 -0.2605725 -0.9653537
-1060.62927246094 76.9630279541016 189.072418212891 0.005336939 -0.2647223 -0.9643099
-1060.69616699219 153.807601928711 167.736724853516 0.02390441 -0.2698243 -0.9626128
-1060.76391601563 230.53173828125 146.095809936523 0.04233189 -0.2722942 -0.9612824
-1060.83215332031 307.290802001953 124.297035217285 0.06187765 -0.2731778 -0.9599714
-1060.90148925781 384.762390136719 102.174209594727 0.08211721 -0.2747147 -0.9580128
-1060.97302246094 464.198608398438 79.3431167602539 0.1020354 -0.2743349 -0.9562056
-1061.04345703125 543.009826660156 56.8221893310547 0.1216458 -0.2715334 -0.9547104
-1061.10510253906 612.333068847656 37.1481819152832 0.1390591 -0.2701612 -0.95272
-1061.14416503906 656.171142578125 24.6956882476807 0.1499995 -0.2703443 -0.9510069
-1061.18322753906 700.001159667969 12.214674949646 0.1609088 -0.2704733 -0.9491852
-994.880798339844 700.017272949219 23.4412231445313 0.1614075 -0.254682 -0.9534593
-928.576721191406 700.033447265625 34.6581497192383 0.1620188 -0.2387538 -0.9574688
-875.836975097656 700.046325683594 43.5887336730957 0.1629515 -0.2259914 -0.9604034
-823.104064941406 700.059204101563 52.5595245361328 0.1644689 -0.2132474 -0.9630553
-763.280395507813 700.073974609375 62.8110275268555 0.1661699 -0.1989085 -0.9658276
-703.469360351563 700.088806152344 73.1365203857422 0.1678365 -0.1846179 -0.9683734
-643.269836425781 700.103881835938 83.6063385009766 0.1694437 -0.1702182 -0.9707289
-583.081115722656 700.119079589844 94.1383895874023 0.1706936 -0.1557413 -0.972938
-524.423950195313 700.133911132813 104.441680908203 0.1714481 -0.1414828 -0.9749811
-465.768096923828 700.148742675781 114.752250671387 0.1716369 -0.1270566 -0.9769326
-407.623382568359 700.163391113281 124.952911376953 0.1715169 -0.1125803 -0.9787276
-349.474334716797 700.178039550781 135.128860473633 0.1713668 -0.09792131 -0.9803289
-291.304626464844 700.192687988281 145.291198730469 0.1715746 -0.08310162 -0.9816599
-233.138748168945 700.207336425781 155.475357055664 0.1725227 -0.06826703 -0.982637
-174.863754272461 700.222106933594 165.744415283203 0.174 -0.05353452 -0.9832894
-116.604469299316 700.236999511719 176.102523803711 0.1757944 -0.03897923 -0.9836549
-58.2838249206543 700.252075195313 186.573883056641 0.1773521 -0.02456653 -0.9838408
0.0250994879752398 700.267211914063 197.110534667969 0.1781157 -0.01015794 -0.9839571
58.3669624328613 700.282409667969 207.674697875977 0.1781083 0.004425869 -0.9840009
116.712760925293 700.297546386719 218.217086791992 0.17735 0.01923604 -0.9839599
175.085403442383 700.312683105469 228.71208190918 0.1765192 0.03425837 -0.9837008
233.462646484375 700.327697753906 239.181427001953 0.1762963 0.04927309 -0.9831032
291.856781005859 700.3427734375 249.662139892578 0.176445 0.06405789 -0.9822239
350.246826171875 700.35791015625 260.165771484375 0.1767289 0.07851242 -0.9811232
408.662811279297 700.373046875 270.700653076172 0.1767807 0.09260534 -0.9798841
467.078979492188 700.38818359375 281.234619140625 0.1762341 0.106367 -0.9785845
525.529724121094 700.4033203125 291.743469238281 0.1753162 0.1198393 -0.9771913
583.988098144531 700.418395996094 302.210388183594 0.1742581 0.1330077 -0.9756757
642.381591796875 700.433349609375 312.618591308594 0.173227 0.1458197 -0.9740272
700.781616210938 700.4482421875 322.990509033203 0.1723932 0.1581738 -0.9722456
758.81494140625 700.463073730469 333.270721435547 0.1716422 0.1699164 -0.9703954
816.852844238281 700.477783203125 343.525421142578 0.1708439 0.1812338 -0.9684868
874.187438964844 700.492370605469 353.633575439453 0.1702934 0.192166 -0.9664742
931.52099609375 700.506896972656 363.747222900391 0.1702788 0.2031283 -0.9642324
989.291870117188 700.521606445313 373.974182128906 0.1705461 0.2145357 -0.9617112
1047.05578613281 700.536376953125 384.240600585938 0.1706857 0.2265435 -0.9589288
1054.24597167969 695.095581054688 384.225769042969 0.1694866 0.2282324 -0.9587409
1061.18518066406 689.918212890625 384.211334228516 0.1683255 0.2298827 -0.9585512
949.71337890625 661.756774902344 358.635162353516 0.1626094 0.207726 -0.9645766
1002.42370605469 626.804504394531 359.572113037109 0.154893 0.2199499 -0.9631356
1002.44830322266 661.555847167969 367.485290527344 0.1623577 0.2183707 -0.9622651
1002.45886230469 680.582336425781 371.799652099609 0.1663945 0.2177434 -0.9617175
1030.98767089844 661.42919921875 372.271789550781 0.1621479 0.2243747 -0.9609184
1031.03015136719 680.403076171875 376.703979492188 0.1662993 0.2237176 -0.9603619
1031.05236816406 690.367858886719 379.027984619141 0.1684656 0.2234254 -0.9600523
1046.14270019531 680.302307128906 379.297760009766 0.16623 0.226943 -0.9596168
1046.17431640625 690.25146484375 381.654968261719 0.1684256 0.2266418 -0.9593051
1061.12683105469 612.767578125 365.593872070313 0.1507746 0.233521 -0.960591
1061.0732421875 543.554504394531 348.487030029297 0.134505 0.242178 -0.9608633
1061.00988769531 464.786468505859 328.253326416016 0.1161183 0.2507213 -0.9610699
1060.94409179688 385.252014160156 307.236755371094 0.09777699 0.2564659 -0.961595
1060.87878417969 307.624633789063 286.399200439453 0.07940228 0.2597359 -0.9624097
1060.81335449219 230.705718994141 265.499267578125 0.06026177 0.2636051 -0.9627465
1060.74682617188 153.839065551758 244.263397216797 0.04064135 0.2680952 -0.9625348
1060.67919921875 76.8814697265625 222.657043457031 0.02135684 0.2721788 -0.9620097
1060.61059570313 -0.106242254376411 200.770294189453 0.003784839 0.2738841 -0.9617553
1060.54235839844 -77.1069793701172 178.966537475586 -0.01314395 0.2698806 -0.9628041
1060.47546386719 -154.158798217773 157.62907409668 -0.03157353 0.2644225 -0.96389
1060.40954589844 -231.230606079102 136.573913574219 -0.05098644 0.2629184 -0.9634699
1060.34350585938 -308.3154296875 115.498504638672 -0.07043466 0.2637621 -0.9620127
1060.27722167969 -385.435302734375 94.3135299682617 -0.08993919 0.2641743 -0.9602723
1060.21081542969 -462.507598876953 73.1106567382813 -0.1096753 0.2638354 -0.9583122
1060.14465332031 -539.210205078125 51.9794311523438 -0.1292413 0.2638564 -0.9558643
1060.07885742188 -615.172241210938 30.9620742797852 -0.1484198 0.2646678 -0.9528497
1060.00769042969 -696.661865234375 8.26614665985107 -0.168336 0.2650599 -0.9494241
1044.24914550781 -697.061462402344 10.9497756958008 -0.1685423 0.2614405 -0.9503906
1052.05517578125 -691.861389160156 11.0062484741211 -0.1672434 0.2632632 -0.9501169
1052.04016113281 -697.095886230469 9.55843544006348 -0.1684993 0.2632325 -0.9499035
4 0 363 364 362
4 364 366 367 365
4 367 369 370 368
4 370 464 465 463
4 442 444 443 441
4 439 441 440 438
4 436 438 437 17
4 19 1 0 18
4 20 2 1 19
4 21 3 2 20
4 22 4 3 21
4 23 5 4 22
4 24 6 5 23
4 25 7 6 24
4 26 8 7 25
4 27 9 8 26
4 28 10 9 27
4 29 11 10 28
4 30 12 11 29
4 31 13 12 30
4 32 14 13 31
4 33 15 14 32
4 34 16 15 33
4 35 17 16 34
4 37 19 18 36
4 38 20 19 37
4 39 21 20 38
4 40 22 21 39
4 41 23 22 40
4 42 24 23 41
4 43 25 24 42
4 44 26 25 43
4 45 27 26 44
4 46 28 27 45
4 47 29 28 46
4 48 30 29 47
4 49 31 30 48
4 50 32 31 49
4 51 33 32 50
4 52 34 33 51
4 53 35 34 52
4 55 37 36 54
4 56 38 37 55
4 57 39 38 56
4 58 40 39 57
4 59 41 40 58
4 60 42 41 59
4 61 43 42 60
4 62 44 43 61
4 63 45 44 62
4 64 46 45 63
4 65 47 46 64
4 66 48 47 65
4 67 49 48 66
4 68 50 49 67
4 69 51 50 68
4 70 52 51 69
4 71 53 52 70
4 73 55 54 72
4 74 56 55 73
4 75 57 56 74
4 76 58 57 75
4 77 59 58 76
4 78 60 59 77
4 79 61 60 78
4 80 62 61 79
4 81 63 62 80
4 82 64 63 81
4 83 65 64 82
4 84 66 65 83
4 85 67 66 84
4 86 68 67 85
4 87 69 68 86
4 88 70 69 87
4 89 71 70 88
4 91 73 72 90
4 92 74 73 91
4 93 75 74 92
4 94 76 75 93
4 95 77 76 94
4 96 78 77 95
4 97 79 78 96
4 98 80 79 97
4 99 81 80 98
4 100 82 81 99
4 101 83 82 100
4 102 84 83 101
4 103 85 84 102
4 104 86 85 103
4 105 87 86 104
4 106 88 87 105
4 107 89 88 106
4 109 91 90 108
4 110 92 91 109
4 111 93 92 110
4 112 94 93 111
4 113 95 94 112
4 114 96 95 113
4 115 97 96 114
4 116 98 97 115
4 117 99 98 116
4 118 100 99 117
4 119 101 100 118
4 120 102 101 119
4 121 103 102 120
4 122 104 103 121
4 123 105 104 122
4 124 106 105 123
4 125 107 106 124
4 127 109 108 126
4 128 110 109 127
4 129 111 110 128
4 130 112 111 129
4 131 113 112 130
4 132 114 113 131
4 133 115 114 132
4 134 116 115 133
4 135 117 116 134
4 136 118 117 135
4 137 119 118 136
4 138 120 119 137
4 139 121 120 138
4 140 122 121 139
4 141 123 122 140
4 142 124 123 141
4 143 125 124 142
4 145 127 126 144
4 146 128 127 145
4 147 129 128 146
4 148 130 129 147
4 149 131 130 148
4 150 132 131 149
4 151 133 132 150
4 152 134 133 151
4 153 135 134 152
4 154 136 135 153
4 155 137 136 154
4 156 138 137 155
4 157 139 138 156
4 158 140 139 157
4 159 141 140 158
4 160 142 141 159
4 161 143 142 160
4 163 145 144 162
4 164 146 145 163
4 165 147 146 164
4 166 148 147 165
4 167 149 148 166
4 168 150 149 167
4 169 151 150 168
4 170 152 151 169
4 171 153 152 170
4 172 154 153 171
4 173 155 154 172
4 174 156 155 173
4 175 157 156 174
4 176 158 157 175
4 177 159 158 176
4 178 160 159 177
4 179 161 160 178
4 181 163 162 180
4 182 164 163 181
4 183 165 164 182
4 184 166 165 183
4 185 167 166 184
4 186 168 167 185
4 187 169 168 186
4 188 170 169 187
4 189 171 170 188
4 190 172 171 189
4 191 173 172 190
4 192 174 173 191
4 193 175 174 192
4 194 176 175 193
4 195 177 176 194
4 196 178 177 195
4 197 179 178 196
4 199 181 180 198
4 200 182 181 199
4 201 183 182 200
4 202 184 183 201
4 203 185 184 202
4 204 186 185 203
4 205 187 186 204
4 206 188 187 205
4 207 189 188 206
4 208 190 189 207
4 209 191 190 208
4 210 192 191 209
4 211 193 192 210
4 212 194 193 211
4 213 195 194 212
4 214 196 195 213
4 215 197 196 214
4 217 199 198 216
4 218 200 199 217
4 219 201 200 218
4 220 202 201 219
4 221 203 202 220
4 222 204 203 221
4 223 205 204 222
4 224 206 205 223
4 225 207 206 224
4 226 208 207 225
4 227 209 208 226
4 228 210 209 227
4 229 211 210 228
4 230 212 211 229
4 231 213 212 230
4 232 214 213 231
4 233 215 214 232
4 235 217 216 234
4 236 218 217 235
4 237 219 218 236
4 238 220 219 237
4 239 221 220 238
4 240 222 221 239
4 241 223 222 240
4 242 224 223 241
4 243 225 224 242
4 244 226 225 243
4 245 227 226 244
4 246 228 227 245
4 247 229 228 246
4 248 230 229 247
4 249 231 230 248
4 250 232 231 249
4 251 233 232 250
4 253 235 234 252
4 254 236 235 253
4 255 237 236 254
4 256 238 237 255
4 257 239 238 256
4 258 240 239 257
4 259 241 240 258
4 260 242 241 259
4 261 243 242 260
4 262 244 243 261
4 263 245 244 262
4 264 246 245 263
4 265 247 246 264
4 266 248 247 265
4 267 249 248 266
4 268 250 249 267
4 269 251 250 268
4 271 253 252 270
4 272 254 253 271
4 273 255 254 272
4 274 256 255 273
4 275 257 256 274
4 276 258 257 275
4 277 259 258 276
4 278 260 259 277
4 279 261 260 278
4 280 262 261 279
4 281 263 262 280
4 282 264 263 281
4 283 265 264 282
4 284 266 265 283
4 285 267 266 284
4 286 268 267 285
4 287 269 268 286
4 289 271 270 288
4 290 272 271 289
4 291 273 272 290
4 292 274 273 291
4 293 275 274 292
4 294 276 275 293
4 295 277 276 294
4 296 278 277 295
4 297 279 278 296
4 298 280 279 297
4 299 281 280 298
4 300 282 281 299
4 301 283 282 300
4 302 284 283 301
4 303 285 284 302
4 304 286 285 303
4 305 287 286 304
4 307 289 288 306
4 308 290 289 307
4 309 291 290 308
4 310 292 291 309
4 311 293 292 310
4 312 294 293 311
4 313 295 294 312
4 314 296 295 313
4 315 297 296 314
4 316 298 297 315
4 317 299 298 316
4 318 300 299 317
4 319 301 300 318
4 320 302 301 319
4 321 303 302 320
4 322 304 303 321
4 323 305 304 322
4 373 306 374 375
4 376 375 377 378
3 465 324 325
3 463 465 325
3 462 324 465
3 462 465 464
3 369 462 464
3 463 325 326
3 370 463 368
3 326 368 463
3 365 368 326
3 366 369 367
3 365 367 368
3 461 462 369
3 365 326 362
3 464 370 369
3 366 461 369
3 458 4 457
3 5 456 457
3 456 6 455
3 3 458 459
3 365 362 364
3 363 1 461
3 461 1 460
3 0 1 363
3 460 1 2
3 459 460 2
3 0 362 18
3 363 461 366
3 363 366 364
3 2 3 459
3 362 326 327
3 331 36 330
3 36 331 332
3 330 18 329
3 329 18 328
3 332 333 54
3 335 72 334
3 336 90 335
3 338 108 337
3 336 337 90
3 108 338 339
3 72 333 334
3 340 126 339
3 328 362 327
3 458 3 4
3 456 5 6
3 455 6 7
3 457 4 5
3 18 362 328
3 36 18 330
3 72 54 333
3 108 90 337
3 72 335 90
3 36 332 54
3 108 339 126
3 126 340 341
3 454 455 7
3 8 453 454
3 451 11 450
3 449 13 448
3 12 449 450
3 452 453 9
3 8 9 453
3 10 452 9
3 445 446 16
3 448 14 447
3 451 10 11
3 446 447 15
3 10 451 452
3 8 454 7
3 435 445 443
3 440 443 445
3 444 435 443
3 433 434 444
3 435 444 434
3 442 433 444
3 438 440 437
3 445 437 440
3 438 436 439
3 439 442 441
3 442 439 432
3 439 436 432
3 433 442 432
3 443 440 441
3 16 437 445
3 11 12 450
3 449 12 13
3 448 13 14
3 446 15 16
3 437 16 17
3 447 14 15
3 430 436 35
3 53 428 35
3 71 89 425
3 426 53 71
3 107 423 89
3 125 421 107
3 17 35 436
3 53 427 428
3 53 426 427
3 436 430 431
3 429 430 35
3 426 71 425
3 35 428 429
3 424 89 423
3 423 107 422
3 422 107 421
3 421 125 420
3 425 89 424
3 419 420 125
3 419 143 418
3 432 436 431
3 143 419 125
3 346 180 345
3 345 162 344
3 144 342 343
3 144 341 342
3 343 344 162
3 350 351 216
3 351 352 234
3 348 198 347
3 198 348 349
3 349 350 216
3 180 346 347
3 352 353 234
3 162 144 343
3 180 162 345
3 216 198 349
3 234 216 351
3 180 347 198
3 355 270 354
3 356 270 355
3 270 252 354
3 356 288 270
3 358 288 357
3 356 357 288
3 353 252 234
3 354 252 353
3 359 374 358
3 360 374 359
3 360 377 374
3 377 375 374
3 374 306 288
3 377 360 361
3 371 378 361
3 372 378 371
3 376 373 375
3 379 373 376
3 376 378 372
3 372 379 376
3 361 378 377
3 307 306 373
3 380 308 307
3 381 309 308
3 383 311 310
3 384 312 311
3 310 309 382
3 308 380 381
3 307 379 380
3 383 384 311
3 384 385 312
3 382 383 310
3 309 381 382
3 379 307 373
3 313 312 385
3 358 374 288
3 161 417 143
3 179 415 161
3 215 411 197
3 233 409 215
3 197 413 179
3 405 251 269
3 404 269 287
3 269 404 405
3 287 402 403
3 403 404 287
3 401 402 305
3 407 233 251
3 406 251 405
3 415 416 161
3 161 416 417
3 414 415 179
3 414 179 413
3 413 197 412
3 408 233 407
3 409 233 408
3 412 197 411
3 215 409 410
3 411 215 410
3 251 406 407
3 305 402 287
3 418 143 417
3 386 314 313
3 387 315 314
3 389 317 316
3 390 318 317
3 316 315 388
3 388 315 387
3 316 388 389
3 392 319 391
3 391 319 318
3 390 391 318
3 317 389 390
3 386 387 314
3 386 313 385
3 393 321 320
3 394 322 321
3 401 305 400
3 323 400 305
3 398 399 323
3 400 323 399
3 323 322 395
3 393 394 321
3 394 395 322
3 398 323 396
3 396 323 395
3 398 396 397
3 392 393 320
3 392 320 319
3 341 144 126
